<svg version="1.1" xmlns="http://www.w3.org/2000/svg" viewBox="0 0 1180.9533615112305 496.78125" width="1180.9533615112305" height="496.78125" filter="invert(93%) hue-rotate(180deg)">
  <!-- svg-source:excalidraw -->

  <defs>
    <style class="style-fonts">
      @font-face {
        font-family: "Virgil";
        src: url("https://excalidraw.com/Virgil.woff2");
      }
      @font-face {
        font-family: "Cascadia";
        src: url("https://excalidraw.com/Cascadia.woff2");
      }
    </style>

  </defs>
  <g stroke-linecap="round" transform="translate(292.95336151123047 10) rotate(0 146.17773437500006 52.83203125)"><path d="M26.42 0 M26.42 0 C75.31 -0.19, 122.59 1.08, 265.94 0 M26.42 0 C75.39 0.98, 125.09 2.02, 265.94 0 M265.94 0 C283.03 -0.41, 291.69 7.14, 292.36 26.42 M265.94 0 C284.88 -2.06, 293.74 9.29, 292.36 26.42 M292.36 26.42 C292.25 35.32, 291.35 47.21, 292.36 79.25 M292.36 26.42 C291.51 37.64, 292.09 49.41, 292.36 79.25 M292.36 79.25 C293.93 96.71, 284.61 106.25, 265.94 105.66 M292.36 79.25 C291.29 97.32, 284.27 105.92, 265.94 105.66 M265.94 105.66 C192.71 102.85, 121.65 102.66, 26.42 105.66 M265.94 105.66 C209.23 105.31, 151.32 104.12, 26.42 105.66 M26.42 105.66 C9.06 106.36, -0.72 95.23, 0 79.25 M26.42 105.66 C7.61 106.79, -2.2 97.04, 0 79.25 M0 79.25 C-0.53 63.25, 0.87 46.72, 0 26.42 M0 79.25 C-0.14 65.29, 0.17 51.81, 0 26.42 M0 26.42 C-1.03 9.14, 10.75 1.85, 26.42 0 M0 26.42 C0.34 7.72, 8.35 1.52, 26.42 0" stroke="#1e1e1e" stroke-width="1" fill="none"></path></g><g transform="translate(331.7012023925781 37.83203125) rotate(0 107.42989349365234 25)"><text x="107.42989349365234" y="0" font-family="Virgil, Segoe UI Emoji" font-size="20px" fill="#1e1e1e" text-anchor="middle" style="white-space: pre;" direction="ltr" dominant-baseline="text-before-edge">VO</text><text x="107.42989349365234" y="25" font-family="Virgil, Segoe UI Emoji" font-size="20px" fill="#1e1e1e" text-anchor="middle" style="white-space: pre;" direction="ltr" dominant-baseline="text-before-edge">API</text></g><g stroke-linecap="round" transform="translate(290.48461151123047 292.470703125) rotate(0 137.0078125 53.224609375)"><path d="M26.61 0 M26.61 0 C112.42 -0.72, 198.37 -0.8, 247.4 0 M26.61 0 C91.28 1.74, 156.86 0.89, 247.4 0 M247.4 0 C264.63 -0.17, 274.82 7.06, 274.02 26.61 M247.4 0 C267.1 1.19, 273.46 7.08, 274.02 26.61 M274.02 26.61 C274.03 49.25, 274.25 67.58, 274.02 79.84 M274.02 26.61 C273.49 46.04, 274.2 63.22, 274.02 79.84 M274.02 79.84 C272.86 98, 264.32 108.18, 247.4 106.45 M274.02 79.84 C274.01 96.53, 264.49 104.5, 247.4 106.45 M247.4 106.45 C171.39 105.99, 94.41 103.63, 26.61 106.45 M247.4 106.45 C198.5 106.71, 150.48 107.56, 26.61 106.45 M26.61 106.45 C9.31 107.87, -0.21 96.07, 0 79.84 M26.61 106.45 C6.72 105.4, -0.71 97.28, 0 79.84 M0 79.84 C0.59 63.4, -0.87 49.96, 0 26.61 M0 79.84 C0.97 62.48, 0.22 43.59, 0 26.61 M0 26.61 C1.04 10.52, 8.83 -0.73, 26.61 0 M0 26.61 C1.11 9.78, 7.45 0.54, 26.61 0" stroke="#1e1e1e" stroke-width="1" fill="none"></path></g><g transform="translate(385.28246307373047 333.1953125) rotate(0 42.2099609375 12.5)"><text x="42.2099609375" y="0" font-family="Virgil, Segoe UI Emoji" font-size="20px" fill="#1e1e1e" text-anchor="middle" style="white-space: pre;" direction="ltr" dominant-baseline="text-before-edge">Your app</text></g><g stroke-linecap="round" transform="translate(972.7736740112305 112.314453125) rotate(0 99.08984375 181.546875)"><path d="M32 0 M32 0 C77.43 -0.56, 121.62 -0.94, 166.18 0 M32 0 C59.58 0.65, 88.65 0.13, 166.18 0 M166.18 0 C186.4 1.24, 196.93 11.24, 198.18 32 M166.18 0 C187.18 -1.93, 199.32 11.13, 198.18 32 M198.18 32 C197.15 139, 195.93 246.36, 198.18 331.09 M198.18 32 C199.46 100.46, 200.18 167.89, 198.18 331.09 M198.18 331.09 C198.91 352.39, 185.77 364.78, 166.18 363.09 M198.18 331.09 C199.39 353.17, 188.52 363, 166.18 363.09 M166.18 363.09 C126.48 363.2, 84.75 360.27, 32 363.09 M166.18 363.09 C122.56 361.29, 78.59 362.63, 32 363.09 M32 363.09 C11.7 364.69, 0.98 352.58, 0 331.09 M32 363.09 C12.35 361.85, -0.21 350.15, 0 331.09 M0 331.09 C0.2 223.87, -2.16 118.32, 0 32 M0 331.09 C-1.38 225.21, -1.15 119.57, 0 32 M0 32 C1.5 12.46, 9.73 -0.4, 32 0 M0 32 C1.41 8.38, 12.91 0.2, 32 0" stroke="#1e1e1e" stroke-width="1" fill="none"></path></g><g transform="translate(981.0236053466797 243.861328125) rotate(0 90.83991241455078 50)"><text x="90.83991241455078" y="0" font-family="Virgil, Segoe UI Emoji" font-size="20px" fill="#1e1e1e" text-anchor="middle" style="white-space: pre;" direction="ltr" dominant-baseline="text-before-edge">Credential holder's</text><text x="90.83991241455078" y="25" font-family="Virgil, Segoe UI Emoji" font-size="20px" fill="#1e1e1e" text-anchor="middle" style="white-space: pre;" direction="ltr" dominant-baseline="text-before-edge">wallet</text><text x="90.83991241455078" y="50" font-family="Virgil, Segoe UI Emoji" font-size="20px" fill="#1e1e1e" text-anchor="middle" style="white-space: pre;" direction="ltr" dominant-baseline="text-before-edge"></text><text x="90.83991241455078" y="75" font-family="Virgil, Segoe UI Emoji" font-size="20px" fill="#1e1e1e" text-anchor="middle" style="white-space: pre;" direction="ltr" dominant-baseline="text-before-edge">MS Authenticator</text></g><g mask="url(#mask-5SvcJmJGKKkA_KCX8GBdy)" stroke-linecap="round"><g transform="translate(333.10699886184364 287.57421875) rotate(0 0.5939025789640482 -83.97734593594448)"><path d="M0.96 -0.83 C1.14 -28.85, 1.2 -139.85, 1.18 -167.77 M0.01 1.35 C0.06 -27.01, 0.45 -140.69, 0.48 -169.31" stroke="#1e1e1e" stroke-width="1" fill="none"></path></g><g transform="translate(333.10699886184364 287.57421875) rotate(0 0.5939025789640482 -83.97734593594448)"><path d="M9.3 -140.3 C9.29 -149.47, 5.21 -157.51, -0.58 -169.51 M10.35 -141.21 C8 -147.34, 5.55 -155.24, -0.36 -169.91" stroke="#1e1e1e" stroke-width="1" fill="none"></path></g><g transform="translate(333.10699886184364 287.57421875) rotate(0 0.5939025789640482 -83.97734593594448)"><path d="M-11.23 -140.35 C-4.89 -149.67, -2.63 -157.69, -0.58 -169.51 M-10.17 -141.26 C-7.43 -147.53, -4.78 -155.41, -0.36 -169.91" stroke="#1e1e1e" stroke-width="1" fill="none"></path></g></g><mask id="mask-5SvcJmJGKKkA_KCX8GBdy"><rect x="0" y="0" fill="#fff" width="433.8069232513244" height="556.45703125"></rect><rect x="248.8970321625411" y="178.1328125" fill="#000" width="169.11985778808594" height="50" opacity="1"></rect></mask><g transform="translate(248.8970321625411 178.1328125) rotate(0 84.80386927826657 25.464060314055516)"><text x="84.55992889404297" y="0" font-family="Virgil, Segoe UI Emoji" font-size="20px" fill="#1e1e1e" text-anchor="middle" style="white-space: pre;" direction="ltr" dominant-baseline="text-before-edge">Create issuance </text><text x="84.55992889404297" y="25" font-family="Virgil, Segoe UI Emoji" font-size="20px" fill="#1e1e1e" text-anchor="middle" style="white-space: pre;" direction="ltr" dominant-baseline="text-before-edge">request</text></g><g mask="url(#mask-DdtUz_7bYCa3tlRU5OKv3)" stroke-linecap="round"><g transform="translate(489.15454274788044 120.97265625) rotate(0 2.989969926629499 85.20006754122673)"><path d="M1.03 0.98 C1.93 29.1, 5.26 140.48, 5.87 168.6 M0.11 0.45 C0.89 28.75, 4.76 142.06, 5.38 169.95" stroke="#1e1e1e" stroke-width="1" fill="none"></path></g><g transform="translate(489.15454274788044 120.97265625) rotate(0 2.989969926629499 85.20006754122673)"><path d="M-4.06 143.51 C-2.57 150.91, 3.03 162.55, 6.97 169.48 M-6 142.19 C-2.12 150.65, 2.57 160.54, 4.89 170.36" stroke="#1e1e1e" stroke-width="1" fill="none"></path></g><g transform="translate(489.15454274788044 120.97265625) rotate(0 2.989969926629499 85.20006754122673)"><path d="M16.45 142.92 C10.99 150.7, 9.65 162.53, 6.97 169.48 M14.51 141.59 C11.58 150.05, 9.45 160.14, 4.89 170.36" stroke="#1e1e1e" stroke-width="1" fill="none"></path></g></g><mask id="mask-DdtUz_7bYCa3tlRU5OKv3"><rect x="0" y="0" fill="#fff" width="594.1570665951108" height="389.9375"></rect><rect x="422.9258470909292" y="192.955078125" fill="#000" width="137.4599151611328" height="25" opacity="1"></rect></mask><g transform="translate(422.9258470909292 192.955078125) rotate(0 69.21866558358073 13.21764566622673)"><text x="68.7299575805664" y="0" font-family="Virgil, Segoe UI Emoji" font-size="20px" fill="#1e1e1e" text-anchor="middle" style="white-space: pre;" direction="ltr" dominant-baseline="text-before-edge">Issuance URL</text></g><g stroke-linecap="round" transform="translate(607.9064865112305 344.859375) rotate(0 77.15625 70.9609375)"><path d="M103.83 4.81 C114.18 7.12, 124.54 14.19, 132.2 21.72 C139.85 29.25, 146.34 40.12, 149.74 49.99 C153.15 59.85, 154.01 71, 152.61 80.89 C151.21 90.78, 147.32 100.85, 141.34 109.34 C135.36 117.84, 126.26 126.51, 116.73 131.84 C107.21 137.18, 95.23 140.51, 84.2 141.33 C73.17 142.15, 61.01 140.45, 50.55 136.78 C40.1 133.1, 29.23 126.64, 21.47 119.28 C13.72 111.91, 7.56 102.11, 4.02 92.6 C0.48 83.1, -1.15 72.5, 0.22 62.24 C1.59 51.97, 6.11 39.79, 12.23 31.02 C18.34 22.26, 27.26 14.78, 36.93 9.65 C46.6 4.51, 58.13 0.67, 70.24 0.21 C82.34 -0.25, 102.4 5.43, 109.56 6.88 C116.72 8.34, 113.92 7.77, 113.21 8.92 M104.65 4.66 C115.03 6.75, 126.24 12.97, 133.99 20.55 C141.74 28.13, 147.73 39.92, 151.14 50.13 C154.54 60.33, 155.84 71.87, 154.44 81.78 C153.04 91.68, 149.06 101.09, 142.76 109.56 C136.46 118.03, 126.52 127.38, 116.64 132.6 C106.75 137.83, 94.3 139.95, 83.44 140.92 C72.57 141.9, 61.65 142.1, 51.43 138.48 C41.21 134.86, 29.86 126.94, 22.1 119.2 C14.34 111.46, 8.46 101.58, 4.88 92.02 C1.29 82.47, -0.9 71.74, 0.6 61.86 C2.11 51.98, 7.73 41.51, 13.91 32.72 C20.1 23.93, 28.41 14.73, 37.69 9.14 C46.97 3.55, 58.6 0, 69.6 -0.81 C80.6 -1.61, 98.04 3.01, 103.68 4.32 C109.32 5.64, 103.58 6.07, 103.44 7.07" stroke="#1e1e1e" stroke-width="1" fill="none"></path></g><g transform="translate(662.6650478462043 403.1433523943952) rotate(0 22.339981079101562 12.499999999999972)"><text x="22.339981079101562" y="0" font-family="Virgil, Segoe UI Emoji" font-size="20px" fill="#1e1e1e" text-anchor="middle" style="white-space: pre;" direction="ltr" dominant-baseline="text-before-edge">User</text></g><g mask="url(#mask-3uvnNzPlKPObb-3AAjw3L)" stroke-linecap="round"><g transform="translate(568.4618680313206 284.32159614761383) rotate(0 196.07950524339566 -70.22982799034415)"><path d="M0.59 0.28 C65.88 -23.09, 325.54 -117.38, 390.55 -140.74 M-0.56 -0.61 C65.19 -23.73, 327.12 -115.63, 392.72 -139.15" stroke="#1e1e1e" stroke-width="1" fill="none"></path></g><g transform="translate(568.4618680313206 284.32159614761383) rotate(0 196.07950524339566 -70.22982799034415)"><path d="M370.05 -121.79 C374.5 -125.56, 380.59 -128.41, 393.42 -139.03 M369.61 -120.07 C376.58 -124.89, 382.69 -130.45, 391.95 -138.64" stroke="#1e1e1e" stroke-width="1" fill="none"></path></g><g transform="translate(568.4618680313206 284.32159614761383) rotate(0 196.07950524339566 -70.22982799034415)"><path d="M363.2 -141.13 C368.94 -141.04, 376.42 -140, 393.42 -139.03 M362.76 -139.41 C371.75 -139.07, 379.7 -139.43, 391.95 -138.64" stroke="#1e1e1e" stroke-width="1" fill="none"></path></g></g><mask id="mask-3uvnNzPlKPObb-3AAjw3L"><rect x="0" y="0" fill="#fff" width="1060.0471115112305" height="525.171657290726"></rect><rect x="671.4545553840685" y="201.3965655760577" fill="#000" width="185.59986877441406" height="25" opacity="1"></rect></mask><g transform="translate(671.4545553840685 201.39656557605775) rotate(0 93.08681789064775 12.69520258121193)"><text x="92.79993438720703" y="0" font-family="Virgil, Segoe UI Emoji" font-size="20px" fill="#1e1e1e" text-anchor="middle" style="white-space: pre;" direction="ltr" dominant-baseline="text-before-edge">Open issuance URL</text></g><g mask="url(#mask-Li_kWwSIZUdPYJQxez1uL)" stroke-linecap="round"><g transform="translate(964.3869552612305 245.86164879056713) rotate(0 -114.6901664613938 53.06645616593073)"><path d="M-0.25 -0.05 C-38.55 17.73, -191.97 89.29, -230.09 107.26 M1.82 -1.13 C-36.63 16.25, -192.69 87.59, -231.2 105.45" stroke="#1e1e1e" stroke-width="1" fill="none"></path></g><g transform="translate(964.3869552612305 245.86164879056713) rotate(0 -114.6901664613938 53.06645616593073)"><path d="M-21.55 20.64 C-14.74 16.75, -8.02 10.35, 0.24 0.01 M-21.62 20.83 C-14.87 14.66, -8.43 7.8, 0.18 0.56" stroke="#1e1e1e" stroke-width="1" fill="none"></path></g><g transform="translate(964.3869552612305 245.86164879056713) rotate(0 -114.6901664613938 53.06645616593073)"><path d="M-30.22 2.04 C-20.94 3.28, -11.83 1.99, 0.24 0.01 M-30.29 2.23 C-20.77 2.12, -11.54 1.27, 0.18 0.56" stroke="#1e1e1e" stroke-width="1" fill="none"></path></g><g transform="translate(964.3869552612305 245.86164879056713) rotate(0 -114.6901664613938 53.06645616593073)"><path d="M-209.97 83.83 C-214.65 91.49, -219.62 96.72, -230.72 105.51 M-210.04 84.02 C-217.1 91.26, -224.41 98.07, -230.78 106.06" stroke="#1e1e1e" stroke-width="1" fill="none"></path></g><g transform="translate(964.3869552612305 245.86164879056713) rotate(0 -114.6901664613938 53.06645616593073)"><path d="M-201.39 102.48 C-208.53 104.99, -215.86 105.09, -230.72 105.51 M-201.46 102.66 C-211.26 103.83, -221.34 104.62, -230.78 106.06" stroke="#1e1e1e" stroke-width="1" fill="none"></path></g></g><mask id="mask-Li_kWwSIZUdPYJQxez1uL"><rect x="0" y="0" fill="#fff" width="1294.1681100440037" height="452.5306655017249"></rect><rect x="766.1864489758009" y="286.69615714614594" fill="#000" width="166.61985778808594" height="25" opacity="1"></rect></mask><g transform="translate(766.1864489758009 286.696157146146) rotate(0 83.51033982403578 12.231947810351869)"><text x="83.30992889404297" y="0" font-family="Virgil, Segoe UI Emoji" font-size="20px" fill="#1e1e1e" text-anchor="middle" style="white-space: pre;" direction="ltr" dominant-baseline="text-before-edge">Prompt &amp; accept</text></g><g mask="url(#mask-A92S1yf0hS8XAdnd9Hjt8)" stroke-linecap="round"><g transform="translate(974.1252365112305 107.7890625) rotate(0 -190.03266814952713 -24.795573950652027)"><path d="M-0.6 -1.16 C-64.23 -9.14, -317.09 -40.4, -380.63 -48.55 M1.29 0.85 C-62.57 -7.45, -317.92 -42.08, -381.35 -50.44" stroke="#1e1e1e" stroke-width="1" fill="none"></path></g><g transform="translate(974.1252365112305 107.7890625) rotate(0 -190.03266814952713 -24.795573950652027)"><path d="M-353.98 -56.16 C-363 -55.71, -377.15 -50.4, -381.23 -50.83 M-352.48 -56.88 C-363.63 -54.85, -373.93 -50.76, -381.23 -50.89" stroke="#1e1e1e" stroke-width="1" fill="none"></path></g><g transform="translate(974.1252365112305 107.7890625) rotate(0 -190.03266814952713 -24.795573950652027)"><path d="M-356.7 -35.82 C-364.53 -43.44, -377.6 -46.22, -381.23 -50.83 M-355.2 -36.54 C-365.47 -42.34, -374.72 -46.05, -381.23 -50.89" stroke="#1e1e1e" stroke-width="1" fill="none"></path></g></g><mask id="mask-A92S1yf0hS8XAdnd9Hjt8"><rect x="0" y="0" fill="#fff" width="1455.1760177612305" height="256.7734375"></rect><rect x="662.6299667358398" y="70.796875" fill="#000" width="241.93975830078125" height="25" opacity="1"></rect></mask><g transform="translate(662.6299667358398 70.796875) rotate(0 121.4626016258635 12.196613549347973)"><text x="120.96987915039062" y="0" font-family="Virgil, Segoe UI Emoji" font-size="20px" fill="#1e1e1e" text-anchor="middle" style="white-space: pre;" direction="ltr" dominant-baseline="text-before-edge">Notify issuance complete</text></g><g stroke-linecap="round"><g transform="translate(285.16039276123047 63.625) rotate(0 -0.6462326889515566 0.45508033834316564)"><path d="M0.08 1.2 C0.08 1.34, 0.03 0.05, -0.01 -0.33 M-1.34 0.78 C-1.49 1.22, -1.02 1.34, -0.96 1.17" stroke="#1e1e1e" stroke-width="1" fill="none"></path></g><g transform="translate(285.16039276123047 63.625) rotate(0 -0.6462326889515566 0.45508033834316564)"><path d="M-1.03 1.26 C-1.02 1.23, -1 1.2, -0.96 1.16 M-1.05 1.26 C-1.01 1.23, -0.98 1.2, -0.96 1.17" stroke="#1e1e1e" stroke-width="1" fill="none"></path></g><g transform="translate(285.16039276123047 63.625) rotate(0 -0.6462326889515566 0.45508033834316564)"><path d="M-1.08 1.19 C-1.05 1.18, -1.02 1.17, -0.96 1.16 M-1.09 1.19 C-1.04 1.18, -1 1.18, -0.96 1.17" stroke="#1e1e1e" stroke-width="1" fill="none"></path></g></g><mask></mask><g mask="url(#mask-SG__nZFdlFNeenOv_a9fF)" stroke-linecap="round"><g transform="translate(289.04711151123047 66.2578125) rotate(0 -98.52402253700387 122.38103198706173)"><path d="M-0.15 0.5 C-33.13 15.09, -197.78 47.92, -197.96 88.68 C-198.14 129.44, -33.99 219.04, -1.24 245.05 M-1.69 -0.28 C-34.72 14.97, -198.79 49.35, -198.3 89.9 C-197.81 130.45, -31.5 216.99, 1.25 243.01" stroke="#1e1e1e" stroke-width="1" fill="none"></path></g><g transform="translate(289.04711151123047 66.2578125) rotate(0 -98.52402253700387 122.38103198706173)"><path d="M-27.18 238.35 C-20.4 237.11, -9.87 238.61, 1.72 241.19 M-28.32 236.74 C-19.11 238.74, -11.11 239.43, 0.47 243.04" stroke="#1e1e1e" stroke-width="1" fill="none"></path></g><g transform="translate(289.04711151123047 66.2578125) rotate(0 -98.52402253700387 122.38103198706173)"><path d="M-16.1 221.08 C-12.39 224.88, -5.1 231.42, 1.72 241.19 M-17.24 219.47 C-11.16 226.44, -6.37 232.12, 0.47 243.04" stroke="#1e1e1e" stroke-width="1" fill="none"></path></g></g><mask id="mask-SG__nZFdlFNeenOv_a9fF"><rect x="0" y="0" fill="#fff" width="588.1642990112305" height="410.72265625"></rect><rect x="10" y="130.5390625" fill="#000" width="159.85984802246094" height="50" opacity="1"></rect></mask><g transform="translate(10 130.5390625) rotate(0 180.5230889742266 58.09978198706173)"><text x="79.92992401123047" y="0" font-family="Virgil, Segoe UI Emoji" font-size="20px" fill="#1e1e1e" text-anchor="middle" style="white-space: pre;" direction="ltr" dominant-baseline="text-before-edge">Notify issuance </text><text x="79.92992401123047" y="25" font-family="Virgil, Segoe UI Emoji" font-size="20px" fill="#1e1e1e" text-anchor="middle" style="white-space: pre;" direction="ltr" dominant-baseline="text-before-edge">complete</text></g></svg>
