<svg version="1.1" xmlns="http://www.w3.org/2000/svg" viewBox="0 0 897.609375 506.30859375" width="897.609375" height="506.30859375">
  <!-- svg-source:excalidraw -->

  <defs>
    <style class="style-fonts">
      @font-face {
        font-family: "Virgil";
        src: url("https://excalidraw.com/Virgil.woff2");
      }
      @font-face {
        font-family: "Cascadia";
        src: url("https://excalidraw.com/Cascadia.woff2");
      }
    </style>

  </defs>
  <g stroke-linecap="round" transform="translate(10 10) rotate(0 129.033203125 82.5546875)"><path d="M32 0 M32 0 C71.82 -0.25, 109.7 1.26, 226.07 0 M32 0 C71.43 0.8, 111.74 2.05, 226.07 0 M226.07 0 C246.88 -0.41, 257.4 9, 258.07 32 M226.07 0 C248.73 -2.06, 259.45 11.15, 258.07 32 M258.07 32 C258.29 50.68, 257.39 72.35, 258.07 133.11 M258.07 32 C257.02 54.09, 257.59 76.73, 258.07 133.11 M258.07 133.11 C259.64 154.29, 248.46 165.69, 226.07 165.11 M258.07 133.11 C257 154.9, 248.12 165.37, 226.07 165.11 M226.07 165.11 C166.55 162.15, 109.63 161.93, 32 165.11 M226.07 165.11 C180.23 164.89, 132.94 163.46, 32 165.11 M32 165.11 C10.92 165.81, -0.72 152.81, 0 133.11 M32 165.11 C9.47 166.23, -2.2 154.63, 0 133.11 M0 133.11 C-0.71 103.08, 0.7 72.54, 0 32 M0 133.11 C-0.04 106.55, 0.26 80.46, 0 32 M0 32 C-1.03 11, 12.61 1.85, 32 0 M0 32 C0.34 9.58, 10.22 1.52, 32 0" stroke="#1e1e1e" stroke-width="1" fill="none"></path></g><g transform="translate(31.603309631347656 67.5546875) rotate(0 107.42989349365234 25)"><text x="107.42989349365234" y="0" font-family="Virgil, Segoe UI Emoji" font-size="20px" fill="#1e1e1e" text-anchor="middle" style="white-space: pre;" direction="ltr" dominant-baseline="text-before-edge">VO</text><text x="107.42989349365234" y="25" font-family="Virgil, Segoe UI Emoji" font-size="20px" fill="#1e1e1e" text-anchor="middle" style="white-space: pre;" direction="ltr" dominant-baseline="text-before-edge">API</text></g><g stroke-linecap="round" transform="translate(689.4296875 12.744140625) rotate(0 99.08984375 53.224609375)"><path d="M26.61 0 M26.61 0 C83.13 -0.3, 139.82 -0.39, 171.57 0 M26.61 0 C69.03 1.66, 112.5 0.68, 171.57 0 M171.57 0 C188.79 -0.17, 198.98 7.06, 198.18 26.61 M171.57 0 C191.26 1.19, 197.63 7.08, 198.18 26.61 M198.18 26.61 C198.2 49.25, 198.41 67.58, 198.18 79.84 M198.18 26.61 C197.65 46.04, 198.37 63.22, 198.18 79.84 M198.18 79.84 C197.03 98, 188.49 108.18, 171.57 106.45 M198.18 79.84 C198.17 96.53, 188.66 104.5, 171.57 106.45 M171.57 106.45 C122.24 106.49, 71.78 103.77, 26.61 106.45 M171.57 106.45 C139.18 106.57, 107.83 107.55, 26.61 106.45 M26.61 106.45 C9.31 107.87, -0.21 96.07, 0 79.84 M26.61 106.45 C6.72 105.4, -0.71 97.28, 0 79.84 M0 79.84 C0.59 63.4, -0.87 49.96, 0 26.61 M0 79.84 C0.97 62.48, 0.22 43.59, 0 26.61 M0 26.61 C1.04 10.52, 8.83 -0.73, 26.61 0 M0 26.61 C1.11 9.78, 7.45 0.54, 26.61 0" stroke="#1e1e1e" stroke-width="1" fill="none"></path></g><g transform="translate(726.4695892333984 28.46875) rotate(0 62.04994201660156 37.5)"><text x="62.04994201660156" y="0" font-family="Virgil, Segoe UI Emoji" font-size="20px" fill="#1e1e1e" text-anchor="middle" style="white-space: pre;" direction="ltr" dominant-baseline="text-before-edge">Your secure </text><text x="62.04994201660156" y="25" font-family="Virgil, Segoe UI Emoji" font-size="20px" fill="#1e1e1e" text-anchor="middle" style="white-space: pre;" direction="ltr" dominant-baseline="text-before-edge">backend</text><text x="62.04994201660156" y="50" font-family="Virgil, Segoe UI Emoji" font-size="20px" fill="#1e1e1e" text-anchor="middle" style="white-space: pre;" direction="ltr" dominant-baseline="text-before-edge">API</text></g><g stroke-linecap="round" transform="translate(462.1015625 382.33203125) rotate(0 109.587890625 56.98828125)"><path d="M28.49 0 M28.49 0 C84.45 1.88, 144.03 -0.35, 190.68 0 M28.49 0 C70.43 -1.16, 113.04 -0.77, 190.68 0 M190.68 0 C209.63 -0.73, 220.14 10.29, 219.18 28.49 M190.68 0 C208.26 0.54, 218.51 8.02, 219.18 28.49 M219.18 28.49 C220.74 47.48, 219.63 70.77, 219.18 85.48 M219.18 28.49 C219.23 47.79, 219.69 66.31, 219.18 85.48 M219.18 85.48 C220.03 104.96, 207.87 114.57, 190.68 113.98 M219.18 85.48 C217.81 106.63, 209.14 112.18, 190.68 113.98 M190.68 113.98 C137.41 111.44, 84.15 110.79, 28.49 113.98 M190.68 113.98 C154.74 113.36, 118.62 114.39, 28.49 113.98 M28.49 113.98 C8 115.22, -0.63 105.05, 0 85.48 M28.49 113.98 C11.33 116.25, 2.03 104.83, 0 85.48 M0 85.48 C1.42 72.97, -1.89 59.15, 0 28.49 M0 85.48 C-0.64 65.46, 0.34 45, 0 28.49 M0 28.49 C-1.25 9.79, 10.39 1.43, 28.49 0 M0 28.49 C1.19 10.05, 10.17 -0.02, 28.49 0" stroke="#1e1e1e" stroke-width="1" fill="none"></path></g><g transform="translate(483.5495300292969 401.8203125) rotate(0 88.13992309570312 37.5)"><text x="88.13992309570312" y="0" font-family="Virgil, Segoe UI Emoji" font-size="20px" fill="#1e1e1e" text-anchor="middle" style="white-space: pre;" direction="ltr" dominant-baseline="text-before-edge">Client application </text><text x="88.13992309570312" y="25" font-family="Virgil, Segoe UI Emoji" font-size="20px" fill="#1e1e1e" text-anchor="middle" style="white-space: pre;" direction="ltr" dominant-baseline="text-before-edge">(browser, mobile, </text><text x="88.13992309570312" y="50" font-family="Virgil, Segoe UI Emoji" font-size="20px" fill="#1e1e1e" text-anchor="middle" style="white-space: pre;" direction="ltr" dominant-baseline="text-before-edge">desktop)</text></g><g mask="url(#mask-ooEt7fYp7B5vlQatr6oHd)" stroke-linecap="round"><g transform="translate(694.50390625 105.76832445949469) rotate(0 -213.0290467844485 1.8594527896971158)"><path d="M0.92 0.11 C-34.94 0.44, -143.39 0.38, -214.57 0.99 C-285.74 1.61, -390.84 3.04, -426.15 3.8 M-0.06 -0.88 C-36.06 -0.34, -143.97 1.08, -215.12 1.99 C-286.27 2.9, -391.76 4.37, -426.97 4.6" stroke="#1e1e1e" stroke-width="1" fill="none"></path></g><g transform="translate(694.50390625 105.76832445949469) rotate(0 -213.0290467844485 1.8594527896971158)"><path d="M-398.71 -4.71 C-410.42 -2.27, -420.1 0.9, -425.74 5.81 M-398.64 -5.01 C-410.87 -1.2, -420.3 2.26, -426.9 4.74" stroke="#1e1e1e" stroke-width="1" fill="none"></path></g><g transform="translate(694.50390625 105.76832445949469) rotate(0 -213.0290467844485 1.8594527896971158)"><path d="M-398.5 15.81 C-410.11 11.14, -419.86 7.2, -425.74 5.81 M-398.43 15.51 C-410.66 11.15, -420.18 6.44, -426.9 4.74" stroke="#1e1e1e" stroke-width="1" fill="none"></path></g></g><mask id="mask-ooEt7fYp7B5vlQatr6oHd"><rect x="0" y="0" fill="#fff" width="1220.5390625" height="210.5626161755288"></rect><rect x="351.66541290283203" y="82.7890625" fill="#000" width="255.05979919433594" height="50" opacity="1"></rect></mask><g transform="translate(351.66541290283203 82.7890625) rotate(0 129.80944656271947 24.83871474919181)"><text x="127.52989959716797" y="0" font-family="Virgil, Segoe UI Emoji" font-size="20px" fill="#1e1e1e" text-anchor="middle" style="white-space: pre;" direction="ltr" dominant-baseline="text-before-edge">3. acquire limited access </text><text x="127.52989959716797" y="25" font-family="Virgil, Segoe UI Emoji" font-size="20px" fill="#1e1e1e" text-anchor="middle" style="white-space: pre;" direction="ltr" dominant-baseline="text-before-edge">token</text></g><g mask="url(#mask-p5WemgG6hOzVtU9IPTQgh)" stroke-linecap="round"><g transform="translate(651.1162866739965 376.5859375) rotate(0 74.07965492838593 -126.39998311400413)"><path d="M0.19 0.8 C25.01 -41.32, 124.62 -211.25, 149.33 -253.6 M-1.17 0.17 C23.45 -41.73, 122.99 -210.4, 148.31 -252.48" stroke="#1e1e1e" stroke-width="1" fill="none"></path></g><g transform="translate(651.1162866739965 376.5859375) rotate(0 74.07965492838593 -126.39998311400413)"><path d="M144.05 -223.21 C143.48 -234.53, 145.81 -244.43, 146.96 -252.42 M142.93 -222.1 C145.47 -234.72, 147.03 -245.39, 149.1 -252.12" stroke="#1e1e1e" stroke-width="1" fill="none"></path></g><g transform="translate(651.1162866739965 376.5859375) rotate(0 74.07965492838593 -126.39998311400413)"><path d="M126.41 -233.7 C131.64 -241.55, 139.84 -247.96, 146.96 -252.42 M125.29 -232.59 C134.49 -241.4, 142.63 -248.16, 149.1 -252.12" stroke="#1e1e1e" stroke-width="1" fill="none"></path></g></g><mask id="mask-p5WemgG6hOzVtU9IPTQgh"><rect x="0" y="0" fill="#fff" width="900.5665968641129" height="729.39453125"></rect><rect x="617.9915424770625" y="225.181640625" fill="#000" width="215.69979858398438" height="50" opacity="1"></rect></mask><g transform="translate(617.9915424770625 225.181640625) rotate(0 107.20439912531992 25.00431376099587)"><text x="107.84989929199219" y="0" font-family="Virgil, Segoe UI Emoji" font-size="20px" fill="#1e1e1e" text-anchor="middle" style="white-space: pre;" direction="ltr" dominant-baseline="text-before-edge">1. get token</text><text x="107.84989929199219" y="25" font-family="Virgil, Segoe UI Emoji" font-size="20px" fill="#1e1e1e" text-anchor="middle" style="white-space: pre;" direction="ltr" dominant-baseline="text-before-edge">for the logged in user</text></g><g mask="url(#mask-oj0KzUR1iVq59rbfv927A)" stroke-linecap="round"><g transform="translate(684.23828125 42.30287256951158) rotate(0 -206.47593283470258 2.1532893708315015)"><path d="M-0.04 -0.92 C-35.02 -0.26, -140.88 2.35, -209.64 3.37 C-278.41 4.4, -378.6 5, -412.64 5.23 M-1.52 1.21 C-36.13 1.61, -138.77 1.39, -207.34 1.77 C-275.91 2.15, -378.51 3.37, -412.91 3.5" stroke="#1e1e1e" stroke-width="1" fill="none"></path></g><g transform="translate(684.23828125 42.30287256951158) rotate(0 -206.47593283470258 2.1532893708315015)"><path d="M-386.34 -8.27 C-392.17 -2.1, -400.83 -0.82, -411.79 4.23 M-384.02 -7.04 C-391.63 -5.77, -397.54 -2.4, -412.17 3.18" stroke="#1e1e1e" stroke-width="1" fill="none"></path></g><g transform="translate(684.23828125 42.30287256951158) rotate(0 -206.47593283470258 2.1532893708315015)"><path d="M-386.18 12.25 C-391.96 11.88, -400.67 6.63, -411.79 4.23 M-383.87 13.48 C-391.67 10.33, -397.61 9.27, -412.17 3.18" stroke="#1e1e1e" stroke-width="1" fill="none"></path></g></g><mask id="mask-oj0KzUR1iVq59rbfv927A"><rect x="0" y="0" fill="#fff" width="1197.8046875" height="146.36903114849682"></rect><rect x="346.481201171875" y="32.19140625" fill="#000" width="257.77978515625" height="25" opacity="1"></rect></mask><g transform="translate(346.481201171875 32.19140625) rotate(0 131.28114724342242 12.26475569034308)"><text x="128.889892578125" y="0" font-family="Virgil, Segoe UI Emoji" font-size="20px" fill="#1e1e1e" text-anchor="middle" style="white-space: pre;" direction="ltr" dominant-baseline="text-before-edge">2. save identity reference</text></g><g mask="url(#mask-EI1qoNAqmElb4VKZwdgpe)" stroke-linecap="round"><g transform="translate(484.88733447171376 378.82421875) rotate(0 -113.16262805710363 -104.80334105071148)"><path d="M-1.01 0.12 C-16.06 -18.99, -52.48 -81.04, -90.05 -115.73 C-127.61 -150.41, -203.63 -192.41, -226.42 -208 M0.67 -0.86 C-14.62 -19.7, -53.3 -79.54, -91.24 -114.35 C-129.18 -149.16, -204.45 -194.08, -226.99 -209.73" stroke="#1e1e1e" stroke-width="1" fill="none"></path></g><g transform="translate(484.88733447171376 378.82421875) rotate(0 -113.16262805710363 -104.80334105071148)"><path d="M-197.57 -203.71 C-207.7 -204.77, -214.73 -207.51, -227.21 -211.35 M-197.66 -203.04 C-207.25 -205.6, -216.21 -206.9, -226.32 -209.42" stroke="#1e1e1e" stroke-width="1" fill="none"></path></g><g transform="translate(484.88733447171376 378.82421875) rotate(0 -113.16262805710363 -104.80334105071148)"><path d="M-208.78 -186.52 C-215.12 -193.07, -218.51 -201.39, -227.21 -211.35 M-208.87 -185.85 C-214.66 -194.04, -219.95 -200.96, -226.32 -209.42" stroke="#1e1e1e" stroke-width="1" fill="none"></path></g></g><mask id="mask-EI1qoNAqmElb4VKZwdgpe"><rect x="0" y="0" fill="#fff" width="811.6652939434275" height="687.99609375"></rect><rect x="287.2126007080078" y="225.90234375" fill="#000" width="216.19979858398438" height="75" opacity="1"></rect></mask><g transform="translate(287.2126007080078 225.90234375) rotate(0 84.51210570660231 48.11853394928852)"><text x="108.09989929199219" y="0" font-family="Virgil, Segoe UI Emoji" font-size="20px" fill="#1e1e1e" text-anchor="middle" style="white-space: pre;" direction="ltr" dominant-baseline="text-before-edge">4. create issuance or</text><text x="108.09989929199219" y="25" font-family="Virgil, Segoe UI Emoji" font-size="20px" fill="#1e1e1e" text-anchor="middle" style="white-space: pre;" direction="ltr" dominant-baseline="text-before-edge">presentation request </text><text x="108.09989929199219" y="50" font-family="Virgil, Segoe UI Emoji" font-size="20px" fill="#1e1e1e" text-anchor="middle" style="white-space: pre;" direction="ltr" dominant-baseline="text-before-edge">(QR code)</text></g><g mask="url(#mask-i0EopOYb90HVqsKjO4MGT)" stroke-linecap="round"><g transform="translate(453.0546875 442.95703125) rotate(0 -156.28356834720353 -134.4821703578206)"><path d="M-0.65 -0.08 C-37.5 -17.37, -168.58 -59, -220.77 -103.48 C-272.96 -147.96, -298.52 -239.41, -313.78 -266.97 M1.21 -1.16 C-35.32 -18.26, -166.5 -57.25, -218.61 -101.88 C-270.72 -146.5, -295.92 -241.15, -311.46 -268.89" stroke="#1e1e1e" stroke-width="1" fill="none"></path></g><g transform="translate(453.0546875 442.95703125) rotate(0 -156.28356834720353 -134.4821703578206)"><path d="M-30.75 -3.13 C-20.52 -2.61, -9.53 0.33, -2.44 -1.02 M-30.94 -1.52 C-20.84 -0.29, -13.47 -1.38, -1.32 -0.17" stroke="#1e1e1e" stroke-width="1" fill="none"></path></g><g transform="translate(453.0546875 442.95703125) rotate(0 -156.28356834720353 -134.4821703578206)"><path d="M-22.91 -22.09 C-15.22 -15.36, -6.81 -6.18, -2.44 -1.02 M-23.1 -20.49 C-15.45 -13.53, -10.43 -8.93, -1.32 -0.17" stroke="#1e1e1e" stroke-width="1" fill="none"></path></g><g transform="translate(453.0546875 442.95703125) rotate(0 -156.28356834720353 -134.4821703578206)"><path d="M-291.06 -248.77 C-297.52 -256.15, -303.17 -260.86, -313.24 -269.83 M-291.26 -247.16 C-296.17 -252.63, -303.95 -260.66, -312.12 -268.98" stroke="#1e1e1e" stroke-width="1" fill="none"></path></g><g transform="translate(453.0546875 442.95703125) rotate(0 -156.28356834720353 -134.4821703578206)"><path d="M-309.93 -240.69 C-310.19 -250.64, -309.62 -258, -313.24 -269.83 M-310.12 -239.09 C-309.34 -247.07, -311.46 -257.52, -312.12 -268.98" stroke="#1e1e1e" stroke-width="1" fill="none"></path></g></g><mask id="mask-i0EopOYb90HVqsKjO4MGT"><rect x="0" y="0" fill="#fff" width="865.734375" height="810.7265625"></rect><rect x="136.21383666992188" y="289.33984375" fill="#000" width="194.25982666015625" height="100" opacity="1"></rect></mask><g transform="translate(136.21383666992188 289.33984375) rotate(0 160.5572824828746 19.135017142179407)"><text x="97.12991333007812" y="0" font-family="Virgil, Segoe UI Emoji" font-size="20px" fill="#1e1e1e" text-anchor="middle" style="white-space: pre;" direction="ltr" dominant-baseline="text-before-edge">5. subscribe to </text><text x="97.12991333007812" y="25" font-family="Virgil, Segoe UI Emoji" font-size="20px" fill="#1e1e1e" text-anchor="middle" style="white-space: pre;" direction="ltr" dominant-baseline="text-before-edge">issuance or </text><text x="97.12991333007812" y="50" font-family="Virgil, Segoe UI Emoji" font-size="20px" fill="#1e1e1e" text-anchor="middle" style="white-space: pre;" direction="ltr" dominant-baseline="text-before-edge">presentation event </text><text x="97.12991333007812" y="75" font-family="Virgil, Segoe UI Emoji" font-size="20px" fill="#1e1e1e" text-anchor="middle" style="white-space: pre;" direction="ltr" dominant-baseline="text-before-edge">(or poll)</text></g></svg>
