<svg version="1.1" xmlns="http://www.w3.org/2000/svg" viewBox="0 0 1201.0333404541016 502.3359375" width="1201.0333404541016" height="502.3359375">
  <!-- svg-source:excalidraw -->

  <defs>
    <style class="style-fonts">
      @font-face {
        font-family: "Virgil";
        src: url("https://excalidraw.com/Virgil.woff2");
      }
      @font-face {
        font-family: "Cascadia";
        src: url("https://excalidraw.com/Cascadia.woff2");
      }
    </style>

  </defs>
  <g stroke-linecap="round" transform="translate(313.03334045410156 10) rotate(0 146.17773437500006 52.83203125)"><path d="M26.42 0 C75.31 -0.19, 122.59 1.08, 265.94 0 M26.42 0 C75.39 0.98, 125.09 2.02, 265.94 0 M265.94 0 C283.03 -0.41, 291.69 7.14, 292.36 26.42 M265.94 0 C284.88 -2.06, 293.74 9.29, 292.36 26.42 M292.36 26.42 C292.25 35.32, 291.35 47.21, 292.36 79.25 M292.36 26.42 C291.51 37.64, 292.09 49.41, 292.36 79.25 M292.36 79.25 C293.93 96.71, 284.61 106.25, 265.94 105.66 M292.36 79.25 C291.29 97.32, 284.27 105.92, 265.94 105.66 M265.94 105.66 C192.71 102.85, 121.65 102.66, 26.42 105.66 M265.94 105.66 C209.23 105.31, 151.32 104.12, 26.42 105.66 M26.42 105.66 C9.06 106.36, -0.72 95.23, 0 79.25 M26.42 105.66 C7.61 106.79, -2.2 97.04, 0 79.25 M0 79.25 C-0.53 63.25, 0.87 46.72, 0 26.42 M0 79.25 C-0.14 65.29, 0.17 51.81, 0 26.42 M0 26.42 C-1.03 9.14, 10.75 1.85, 26.42 0 M0 26.42 C0.34 7.72, 8.35 1.52, 26.42 0" stroke="#1e1e1e" stroke-width="1" fill="none"></path></g><g transform="translate(351.7811813354492 37.83203125) rotate(0 107.42989349365234 25)"><text x="107.42989349365234" y="0" font-family="Virgil, Segoe UI Emoji" font-size="20px" fill="#1e1e1e" text-anchor="middle" style="white-space: pre;" direction="ltr" dominant-baseline="text-before-edge">VO</text><text x="107.42989349365234" y="25" font-family="Virgil, Segoe UI Emoji" font-size="20px" fill="#1e1e1e" text-anchor="middle" style="white-space: pre;" direction="ltr" dominant-baseline="text-before-edge">API</text></g><g stroke-linecap="round" transform="translate(310.56459045410156 292.470703125) rotate(0 137.0078125 53.224609375)"><path d="M26.61 0 C112.42 -0.72, 198.37 -0.8, 247.4 0 M26.61 0 C91.28 1.74, 156.86 0.89, 247.4 0 M247.4 0 C264.63 -0.17, 274.82 7.06, 274.02 26.61 M247.4 0 C267.1 1.19, 273.46 7.08, 274.02 26.61 M274.02 26.61 C274.03 49.25, 274.25 67.58, 274.02 79.84 M274.02 26.61 C273.49 46.04, 274.2 63.22, 274.02 79.84 M274.02 79.84 C272.86 98, 264.32 108.18, 247.4 106.45 M274.02 79.84 C274.01 96.53, 264.49 104.5, 247.4 106.45 M247.4 106.45 C171.39 105.99, 94.41 103.63, 26.61 106.45 M247.4 106.45 C198.5 106.71, 150.48 107.56, 26.61 106.45 M26.61 106.45 C9.31 107.87, -0.21 96.07, 0 79.84 M26.61 106.45 C6.72 105.4, -0.71 97.28, 0 79.84 M0 79.84 C0.59 63.4, -0.87 49.96, 0 26.61 M0 79.84 C0.97 62.48, 0.22 43.59, 0 26.61 M0 26.61 C1.04 10.52, 8.83 -0.73, 26.61 0 M0 26.61 C1.11 9.78, 7.45 0.54, 26.61 0" stroke="#1e1e1e" stroke-width="1" fill="none"></path></g><g transform="translate(405.36244201660156 333.1953125) rotate(0 42.2099609375 12.5)"><text x="42.2099609375" y="0" font-family="Virgil, Segoe UI Emoji" font-size="20px" fill="#1e1e1e" text-anchor="middle" style="white-space: pre;" direction="ltr" dominant-baseline="text-before-edge">Your app</text></g><g stroke-linecap="round" transform="translate(992.8536529541016 112.314453125) rotate(0 99.08984375 181.546875)"><path d="M32 0 C77.43 -0.56, 121.62 -0.94, 166.18 0 M32 0 C59.58 0.65, 88.65 0.13, 166.18 0 M166.18 0 C186.4 1.24, 196.93 11.24, 198.18 32 M166.18 0 C187.18 -1.93, 199.32 11.13, 198.18 32 M198.18 32 C197.15 139, 195.93 246.36, 198.18 331.09 M198.18 32 C199.46 100.46, 200.18 167.89, 198.18 331.09 M198.18 331.09 C198.91 352.39, 185.77 364.78, 166.18 363.09 M198.18 331.09 C199.39 353.17, 188.52 363, 166.18 363.09 M166.18 363.09 C126.48 363.2, 84.75 360.27, 32 363.09 M166.18 363.09 C122.56 361.29, 78.59 362.63, 32 363.09 M32 363.09 C11.7 364.69, 0.98 352.58, 0 331.09 M32 363.09 C12.35 361.85, -0.21 350.15, 0 331.09 M0 331.09 C0.2 223.87, -2.16 118.32, 0 32 M0 331.09 C-1.38 225.21, -1.15 119.57, 0 32 M0 32 C1.5 12.46, 9.73 -0.4, 32 0 M0 32 C1.41 8.38, 12.91 0.2, 32 0" stroke="#1e1e1e" stroke-width="1" fill="none"></path></g><g transform="translate(1005.2135696411133 256.361328125) rotate(0 86.72992706298828 37.5)"><text x="86.72992706298828" y="0" font-family="Virgil, Segoe UI Emoji" font-size="20px" fill="#1e1e1e" text-anchor="middle" style="white-space: pre;" direction="ltr" dominant-baseline="text-before-edge">Credential wallet</text><text x="86.72992706298828" y="25" font-family="Virgil, Segoe UI Emoji" font-size="20px" fill="#1e1e1e" text-anchor="middle" style="white-space: pre;" direction="ltr" dominant-baseline="text-before-edge"></text><text x="86.72992706298828" y="50" font-family="Virgil, Segoe UI Emoji" font-size="20px" fill="#1e1e1e" text-anchor="middle" style="white-space: pre;" direction="ltr" dominant-baseline="text-before-edge">MS Authenticator</text></g><g mask="url(#mask-5SvcJmJGKKkA_KCX8GBdy)" stroke-linecap="round"><g transform="translate(353.18697780471473 287.57421875) rotate(0 0.011730956398082526 -84.45040359081214)"><path d="M0.12 -0.1 C0.02 -16.59, -0.7 -70.73, -0.6 -98.85 C-0.5 -126.96, 0.49 -157.13, 0.72 -168.81 M0 0.17 C-0.12 -16.36, -0.79 -70.83, -0.68 -99.04 C-0.58 -127.24, 0.38 -157.43, 0.63 -169.07" stroke="#1e1e1e" stroke-width="1" fill="none"></path></g><g transform="translate(353.18697780471473 287.57421875) rotate(0 0.011730956398082526 -84.45040359081214)"><path d="M10.18 -140.63 C7.02 -149.29, 4.54 -158.16, 0.63 -169.07 M10.18 -140.63 C6.84 -150.55, 3.65 -160.21, 0.63 -169.07" stroke="#1e1e1e" stroke-width="1" fill="none"></path></g><g transform="translate(353.18697780471473 287.57421875) rotate(0 0.011730956398082526 -84.45040359081214)"><path d="M-10.33 -141.14 C-7.16 -149.67, -3.3 -158.38, 0.63 -169.07 M-10.33 -141.14 C-6.57 -150.88, -2.66 -160.36, 0.63 -169.07" stroke="#1e1e1e" stroke-width="1" fill="none"></path></g></g><mask id="mask-5SvcJmJGKKkA_KCX8GBdy"><rect x="0" y="0" fill="#fff" width="454.54444579480867" height="556.45703125"></rect><rect x="247.8895263671875" y="163.58984375" fill="#000" width="209.27981567382812" height="50" opacity="1"></rect></mask><g transform="translate(247.8895263671875 163.58984375) rotate(0 105.30918239392531 39.533971409187856)"><text x="104.63990783691406" y="0" font-family="Virgil, Segoe UI Emoji" font-size="20px" fill="#1e1e1e" text-anchor="middle" style="white-space: pre;" direction="ltr" dominant-baseline="text-before-edge">Create presentation </text><text x="104.63990783691406" y="25" font-family="Virgil, Segoe UI Emoji" font-size="20px" fill="#1e1e1e" text-anchor="middle" style="white-space: pre;" direction="ltr" dominant-baseline="text-before-edge">request</text></g><g mask="url(#mask-DdtUz_7bYCa3tlRU5OKv3)" stroke-linecap="round"><g transform="translate(509.23452169075154 120.97265625) rotate(0 2.488603748294622 84.56143463140427)"><path d="M0.14 0.13 C0.62 18.14, 2.17 79.92, 2.98 108.07 C3.78 136.23, 4.6 158.89, 4.96 169.06 M0.01 0.06 C0.48 18.1, 2.11 80.12, 2.91 108.25 C3.71 136.37, 4.46 158.71, 4.84 168.81" stroke="#1e1e1e" stroke-width="1" fill="none"></path></g><g transform="translate(509.23452169075154 120.97265625) rotate(0 2.488603748294622 84.56143463140427)"><path d="M-6.42 141 C-2.36 150.63, 1.11 159.74, 4.84 168.81 M-6.42 141 C-2.33 151.12, 1.76 161, 4.84 168.81" stroke="#1e1e1e" stroke-width="1" fill="none"></path></g><g transform="translate(509.23452169075154 120.97265625) rotate(0 2.488603748294622 84.56143463140427)"><path d="M14.09 140.27 C11.21 150.17, 7.73 159.53, 4.84 168.81 M14.09 140.27 C10.74 150.68, 7.4 160.83, 4.84 168.81" stroke="#1e1e1e" stroke-width="1" fill="none"></path></g></g><mask id="mask-DdtUz_7bYCa3tlRU5OKv3"><rect x="0" y="0" fill="#fff" width="614.2370455379819" height="389.9375"></rect><rect x="424.86590576171875" y="216.59375" fill="#000" width="174.45986938476562" height="25" opacity="1"></rect></mask><g transform="translate(424.86590576171875 216.59375) rotate(0 86.85721967732741 -11.059659118595732)"><text x="87.22993469238281" y="0" font-family="Virgil, Segoe UI Emoji" font-size="20px" fill="#1e1e1e" text-anchor="middle" style="white-space: pre;" direction="ltr" dominant-baseline="text-before-edge">Presentation URL</text></g><g stroke-linecap="round" transform="translate(627.9864654541016 344.859375) rotate(0 77.15625 73.73828125)"><path d="M103.83 4.99 C114.18 7.4, 124.54 14.77, 132.2 22.59 C139.85 30.41, 146.34 41.67, 149.74 51.91 C153.15 62.15, 154.01 73.75, 152.61 84.05 C151.21 94.34, 147.32 104.83, 141.34 113.66 C135.36 122.49, 126.26 131.47, 116.73 137.01 C107.21 142.55, 95.23 146.02, 84.2 146.88 C73.17 147.73, 61.01 145.97, 50.55 142.15 C40.1 138.33, 29.23 131.62, 21.47 123.97 C13.72 116.32, 7.56 106.12, 4.02 96.23 C0.48 86.34, -1.15 75.3, 0.22 64.63 C1.59 53.97, 6.11 41.36, 12.23 32.26 C18.34 23.16, 27.26 15.38, 36.93 10.04 C46.6 4.69, 58.13 0.7, 70.24 0.22 C82.34 -0.26, 102.4 5.62, 109.56 7.14 C116.72 8.65, 113.92 8.1, 113.21 9.3 M104.65 4.84 C115.03 7.02, 126.24 13.54, 133.99 21.41 C141.74 29.27, 147.73 41.46, 151.14 52.04 C154.54 62.63, 155.84 74.62, 154.44 84.92 C153.04 95.23, 149.06 105.06, 142.76 113.87 C136.46 122.67, 126.52 132.33, 116.64 137.76 C106.75 143.2, 94.3 145.45, 83.44 146.47 C72.57 147.48, 61.65 147.62, 51.43 143.86 C41.21 140.09, 29.86 131.93, 22.1 123.9 C14.34 115.87, 8.46 105.6, 4.88 95.66 C1.29 85.72, -0.9 74.55, 0.6 64.27 C2.11 53.99, 7.73 43.09, 13.91 33.97 C20.1 24.85, 28.41 15.33, 37.69 9.53 C46.97 3.74, 58.6 0.04, 69.6 -0.8 C80.6 -1.63, 98.04 3.15, 103.68 4.5 C109.32 5.85, 103.58 6.26, 103.44 7.3" stroke="#1e1e1e" stroke-width="1" fill="none"></path></g><g transform="translate(682.7450267890754 405.95681754508416) rotate(0 22.339981079101562 12.5)"><text x="22.339981079101562" y="0" font-family="Virgil, Segoe UI Emoji" font-size="20px" fill="#1e1e1e" text-anchor="middle" style="white-space: pre;" direction="ltr" dominant-baseline="text-before-edge">User</text></g><g mask="url(#mask-3uvnNzPlKPObb-3AAjw3L)" stroke-linecap="round"><g transform="translate(588.5418469741917 284.32159614761383) rotate(0 196.07950524339566 -70.22982799034415)"><path d="M0.59 0.28 C65.88 -23.09, 325.54 -117.38, 390.55 -140.74 M-0.56 -0.61 C65.19 -23.73, 327.12 -115.63, 392.72 -139.15" stroke="#1e1e1e" stroke-width="1" fill="none"></path></g><g transform="translate(588.5418469741917 284.32159614761383) rotate(0 196.07950524339566 -70.22982799034415)"><path d="M369.57 -120.07 C374.79 -125.74, 379.16 -129.4, 392.72 -139.15 M369.57 -120.07 C378.5 -127.72, 388.17 -134.15, 392.72 -139.15" stroke="#1e1e1e" stroke-width="1" fill="none"></path></g><g transform="translate(588.5418469741917 284.32159614761383) rotate(0 196.07950524339566 -70.22982799034415)"><path d="M362.72 -139.41 C369.24 -141.22, 374.98 -140.99, 392.72 -139.15 M362.72 -139.41 C374.2 -139.73, 386.48 -138.79, 392.72 -139.15" stroke="#1e1e1e" stroke-width="1" fill="none"></path></g></g><mask id="mask-3uvnNzPlKPObb-3AAjw3L"><rect x="0" y="0" fill="#fff" width="1080.1270904541016" height="525.171657290726"></rect><rect x="671.4545553840685" y="201.3965655760577" fill="#000" width="225.75982666015625" height="25" opacity="1"></rect></mask><g transform="translate(671.4545553840685 201.39656557605775) rotate(0 113.16679683351884 12.69520258121193)"><text x="112.87991333007812" y="0" font-family="Virgil, Segoe UI Emoji" font-size="20px" fill="#1e1e1e" text-anchor="middle" style="white-space: pre;" direction="ltr" dominant-baseline="text-before-edge">Open presentation URL</text></g><g mask="url(#mask-Li_kWwSIZUdPYJQxez1uL)" stroke-linecap="round"><g transform="translate(984.4669342041016 246.12883341504556) rotate(0 -114.3887892937064 53.409127434166294)"><path d="M-0.25 -0.05 C-38.45 17.84, -191.47 89.86, -229.49 107.95 M1.82 -1.13 C-36.53 16.36, -192.18 88.16, -230.6 106.13" stroke="#1e1e1e" stroke-width="1" fill="none"></path></g><g transform="translate(984.4669342041016 246.12883341504556) rotate(0 -114.3887892937064 53.409127434166294)"><path d="M-21.39 21.23 C-15.77 14.9, -8.88 10.95, -0.25 -0.05 M-21.39 21.23 C-13.11 13.02, -5 3.8, -0.25 -0.05" stroke="#1e1e1e" stroke-width="1" fill="none"></path></g><g transform="translate(984.4669342041016 246.12883341504556) rotate(0 -114.3887892937064 53.409127434166294)"><path d="M-30.12 2.66 C-22.01 1.46, -12.72 2.61, -0.25 -0.05 M-30.12 2.66 C-18.33 1.75, -6.77 -0.16, -0.25 -0.05" stroke="#1e1e1e" stroke-width="1" fill="none"></path></g><g transform="translate(984.4669342041016 246.12883341504556) rotate(0 -114.3887892937064 53.409127434166294)"><path d="M-209.35 84.96 C-215.18 90.22, -219.95 97.94, -230.6 106.13 M-209.35 84.96 C-217.6 93.58, -226.19 101.09, -230.6 106.13" stroke="#1e1e1e" stroke-width="1" fill="none"></path></g><g transform="translate(984.4669342041016 246.12883341504556) rotate(0 -114.3887892937064 53.409127434166294)"><path d="M-200.71 103.58 C-209.01 103.7, -216.15 106.3, -230.6 106.13 M-200.71 103.58 C-212.45 104.89, -224.43 105.06, -230.6 106.13" stroke="#1e1e1e" stroke-width="1" fill="none"></path></g></g><mask id="mask-Li_kWwSIZUdPYJQxez1uL"><rect x="0" y="0" fill="#fff" width="1313.6453346515" height="453.48319266267447"></rect><rect x="768.6878230917305" y="274.80601303885993" fill="#000" width="202.37982177734375" height="50" opacity="1"></rect></mask><g transform="translate(768.6878230917305 274.80601303886) rotate(0 101.39032181866469 24.73194781035187)"><text x="101.18991088867188" y="0" font-family="Virgil, Segoe UI Emoji" font-size="20px" fill="#1e1e1e" text-anchor="middle" style="white-space: pre;" direction="ltr" dominant-baseline="text-before-edge">Select matching </text><text x="101.18991088867188" y="25" font-family="Virgil, Segoe UI Emoji" font-size="20px" fill="#1e1e1e" text-anchor="middle" style="white-space: pre;" direction="ltr" dominant-baseline="text-before-edge">credentials to share</text></g><g mask="url(#mask-A92S1yf0hS8XAdnd9Hjt8)" stroke-linecap="round"><g transform="translate(994.2052154541016 107.7890625) rotate(0 -190.3130963406743 -24.62290451134291)"><path d="M-0.26 -0.5 C-63.82 -8.59, -317.35 -40.64, -380.87 -48.79 M0.55 0.36 C-63.1 -7.86, -317.71 -41.36, -381.18 -49.61" stroke="#1e1e1e" stroke-width="1" fill="none"></path></g><g transform="translate(994.2052154541016 107.7890625) rotate(0 -190.3130963406743 -24.62290451134291)"><path d="M-351.9 -56.13 C-364.48 -53.27, -374.85 -51.61, -381.18 -49.61 M-351.9 -56.13 C-358.16 -54.34, -363.9 -53.05, -381.18 -49.61" stroke="#1e1e1e" stroke-width="1" fill="none"></path></g><g transform="translate(994.2052154541016 107.7890625) rotate(0 -190.3130963406743 -24.62290451134291)"><path d="M-354.56 -35.78 C-366.03 -41.01, -375.34 -47.44, -381.18 -49.61 M-354.56 -35.78 C-360.34 -38.3, -365.51 -41.31, -381.18 -49.61" stroke="#1e1e1e" stroke-width="1" fill="none"></path></g></g><mask id="mask-A92S1yf0hS8XAdnd9Hjt8"><rect x="0" y="0" fill="#fff" width="1475.2559967041016" height="256.7734375"></rect><rect x="703.669921875" y="58.296875" fill="#000" width="200.01980590820312" height="50" opacity="1"></rect></mask><g transform="translate(703.669921875 58.296875) rotate(0 100.22219723842727 24.86928298865709)"><text x="100.00990295410156" y="0" font-family="Virgil, Segoe UI Emoji" font-size="20px" fill="#1e1e1e" text-anchor="middle" style="white-space: pre;" direction="ltr" dominant-baseline="text-before-edge">Notify presentation </text><text x="100.00990295410156" y="25" font-family="Virgil, Segoe UI Emoji" font-size="20px" fill="#1e1e1e" text-anchor="middle" style="white-space: pre;" direction="ltr" dominant-baseline="text-before-edge">complete</text></g><g stroke-linecap="round"><g transform="translate(305.24037170410156 63.625) rotate(0 -0.07893788993197859 -0.059392656881172456)"><path d="M0.01 0.15 C0.01 0.13, 0 -0.18, 0 -0.27 M-0.16 0.1 C-0.18 0.11, -0.12 -0.02, -0.12 -0.08" stroke="#1e1e1e" stroke-width="1" fill="none"></path></g><g transform="translate(305.24037170410156 63.625) rotate(0 -0.07893788993197859 -0.059392656881172456)"><path d="M-0.1 0.04 C-0.11 0.01, -0.11 -0.03, -0.12 -0.08 M-0.1 0.04 C-0.11 0.02, -0.11 -0.01, -0.12 -0.08" stroke="#1e1e1e" stroke-width="1" fill="none"></path></g><g transform="translate(305.24037170410156 63.625) rotate(0 -0.07893788993197859 -0.059392656881172456)"><path d="M-0.19 0.02 C-0.17 -0.01, -0.15 -0.04, -0.12 -0.08 M-0.19 0.02 C-0.17 0, -0.16 -0.03, -0.12 -0.08" stroke="#1e1e1e" stroke-width="1" fill="none"></path></g></g><mask></mask><g mask="url(#mask-SG__nZFdlFNeenOv_a9fF)" stroke-linecap="round"><g transform="translate(309.12709045410156 66.2578125) rotate(0 -98.52402253700387 122.38103198706173)"><path d="M-0.15 0.5 C-33.13 15.09, -197.78 47.92, -197.96 88.68 C-198.14 129.44, -33.99 219.04, -1.24 245.05 M-1.69 -0.28 C-34.72 14.97, -198.79 49.35, -198.3 89.9 C-197.81 130.45, -31.5 216.99, 1.25 243.01" stroke="#1e1e1e" stroke-width="1" fill="none"></path></g><g transform="translate(309.12709045410156 66.2578125) rotate(0 -98.52402253700387 122.38103198706173)"><path d="M-28.02 236.42 C-18.57 240.31, -11.84 239.04, 1.25 243.01 M-28.02 236.42 C-18.78 238.54, -7.24 240.58, 1.25 243.01" stroke="#1e1e1e" stroke-width="1" fill="none"></path></g><g transform="translate(309.12709045410156 66.2578125) rotate(0 -98.52402253700387 122.38103198706173)"><path d="M-16.93 219.15 C-10.56 228.08, -7.08 231.85, 1.25 243.01 M-16.93 219.15 C-11.71 227.32, -4.02 235.37, 1.25 243.01" stroke="#1e1e1e" stroke-width="1" fill="none"></path></g></g><mask id="mask-SG__nZFdlFNeenOv_a9fF"><rect x="0" y="0" fill="#fff" width="608.2442779541016" height="410.72265625"></rect><rect x="10" y="130.5390625" fill="#000" width="200.01980590820312" height="50" opacity="1"></rect></mask><g transform="translate(10 130.5390625) rotate(0 200.6030679170977 58.09978198706173)"><text x="100.00990295410156" y="0" font-family="Virgil, Segoe UI Emoji" font-size="20px" fill="#1e1e1e" text-anchor="middle" style="white-space: pre;" direction="ltr" dominant-baseline="text-before-edge">Notify presentation </text><text x="100.00990295410156" y="25" font-family="Virgil, Segoe UI Emoji" font-size="20px" fill="#1e1e1e" text-anchor="middle" style="white-space: pre;" direction="ltr" dominant-baseline="text-before-edge">complete</text></g></svg>
